<?xml version="1.0" encoding="UTF-8"?>
<svg xmlns="http://www.w3.org/2000/svg"
     xmlns:xlink="http://www.w3.org/1999/xlink"
     xmlns:gadfly="http://www.gadflyjl.org/ns"
     version="1.2"
     width="152.4mm" height="101.6mm" viewBox="0 0 152.4 101.6"
     stroke="none"
     fill="#000000"
     stroke-width="0.3"
     font-size="3.88"
>
<g class="plotroot xscalable yscalable" id="img-e78ef153-1">
  <g font-size="3.88" font-family="'PT Sans','Helvetica Neue','Helvetica',sans-serif" fill="rgba(86,73,85,1)" stroke="#000000" stroke-opacity="0.000" id="img-e78ef153-2">
    <g transform="translate(80.14,89.99)">
      <g class="primitive">
        <text text-anchor="middle" dy="0.6em">Year</text>
      </g>
    </g>
  </g>
  <g class="guide xlabels" font-size="2.82" font-family="'PT Sans Caption','Helvetica Neue','Helvetica',sans-serif" fill="rgba(108,96,107,1)" id="img-e78ef153-3">
    <g transform="translate(28.72,83.32)">
      <g class="primitive">
        <text text-anchor="middle" dy="0.6em">1625</text>
      </g>
    </g>
    <g transform="translate(54.43,83.32)">
      <g class="primitive">
        <text text-anchor="middle" dy="0.6em">1650</text>
      </g>
    </g>
    <g transform="translate(80.14,83.32)">
      <g class="primitive">
        <text text-anchor="middle" dy="0.6em">1675</text>
      </g>
    </g>
    <g transform="translate(105.85,83.32)">
      <g class="primitive">
        <text text-anchor="middle" dy="0.6em">1700</text>
      </g>
    </g>
    <g transform="translate(131.55,83.32)">
      <g class="primitive">
        <text text-anchor="middle" dy="0.6em">1725</text>
      </g>
    </g>
  </g>
  <g class="guide colorkey" id="img-e78ef153-4">
    <g fill="rgba(76,64,75,1)" font-size="2.82" font-family="'PT Sans','Helvetica Neue','Helvetica',sans-serif" id="img-e78ef153-5">
      <g transform="translate(137.37,43.66)" id="img-e78ef153-6" class="color_Males">
        <g class="primitive">
          <text dy="0.35em">Males</text>
        </g>
      </g>
      <g transform="translate(137.37,47.28)" id="img-e78ef153-7" class="color_Females">
        <g class="primitive">
          <text dy="0.35em">Females</text>
        </g>
      </g>
    </g>
    <g stroke="#000000" stroke-opacity="0.000" id="img-e78ef153-8">
      <g transform="translate(135.46,43.66)" id="img-e78ef153-9" class="color_Males" fill="rgba(0,190,255,1)">
        <path d="M-0.91,-0.91 L 0.91 -0.91 0.91 0.91 -0.91 0.91 z" class="primitive"/>
      </g>
      <g transform="translate(135.46,47.28)" id="img-e78ef153-10" class="color_Females" fill="rgba(211,202,57,1)">
        <path d="M-0.91,-0.91 L 0.91 -0.91 0.91 0.91 -0.91 0.91 z" class="primitive"/>
      </g>
    </g>
    <g fill="rgba(54,42,52,1)" font-size="3.88" font-family="'PT Sans','Helvetica Neue','Helvetica',sans-serif" stroke="#000000" stroke-opacity="0.000" id="img-e78ef153-11">
      <g transform="translate(134.55,39.84)" id="img-e78ef153-12">
        <g class="primitive">
          <text>variable</text>
        </g>
      </g>
    </g>
  </g>
  <g clip-path="url(#img-e78ef153-13)">
    <g id="img-e78ef153-14">
      <g pointer-events="visible" fill-opacity="0" fill="rgba(0,0,0,0)" stroke="#000000" stroke-opacity="0.000" class="guide background" id="img-e78ef153-15">
        <g transform="translate(80.14,43.66)" id="img-e78ef153-16">
          <path d="M-53.41,-38.66 L 53.41 -38.66 53.41 38.66 -53.41 38.66 z" class="primitive"/>
        </g>
      </g>
      <g class="guide ygridlines xfixed" stroke-dasharray="0.5,0.5" stroke-width="0.2" stroke="#D0D0E0" id="img-e78ef153-17">
        <g transform="translate(80.14,80.31)" id="img-e78ef153-18">
          <path fill="none" d="M-53.41,0 L 53.41 0" class="primitive"/>
        </g>
        <g transform="translate(80.14,43.66)" id="img-e78ef153-19">
          <path fill="none" d="M-53.41,0 L 53.41 0" class="primitive"/>
        </g>
        <g transform="translate(80.14,7)" id="img-e78ef153-20">
          <path fill="none" d="M-53.41,0 L 53.41 0" class="primitive"/>
        </g>
      </g>
      <g class="guide xgridlines yfixed" stroke-dasharray="0.5,0.5" stroke-width="0.2" stroke="#D0D0E0" id="img-e78ef153-21">
        <g transform="translate(28.72,43.66)" id="img-e78ef153-22">
          <path fill="none" d="M0,-38.66 L 0 38.66" class="primitive"/>
        </g>
        <g transform="translate(54.43,43.66)" id="img-e78ef153-23">
          <path fill="none" d="M0,-38.66 L 0 38.66" class="primitive"/>
        </g>
        <g transform="translate(80.14,43.66)" id="img-e78ef153-24">
          <path fill="none" d="M0,-38.66 L 0 38.66" class="primitive"/>
        </g>
        <g transform="translate(105.85,43.66)" id="img-e78ef153-25">
          <path fill="none" d="M0,-38.66 L 0 38.66" class="primitive"/>
        </g>
        <g transform="translate(131.55,43.66)" id="img-e78ef153-26">
          <path fill="none" d="M0,-38.66 L 0 38.66" class="primitive"/>
        </g>
      </g>
      <g class="plotpanel" id="img-e78ef153-27">
        <metadata>
          <boundingbox value="26.72500000000001mm 5.0mm 106.8283333333333mm 77.315mm"/>
          <unitbox value="1623.055010778482 10272.795471595171 103.88997844303614 -10545.590943190344"/>
        </metadata>
        <g stroke-width="0.3" fill="rgba(0,0,0,0)" class="geometry" id="img-e78ef153-28">
          <g transform="translate(74.48,37.01)" id="img-e78ef153-29" stroke="#00BFFF" class="color_Males" stroke-dasharray="none">
            <path fill="none" d="M-41.65,5.05 L -40.62 7.69 -39.59 10.89 -38.56 6.69 -37.53 5.49 -36.5 6.39 -35.48 5.87 -34.45 7.26 -33.42 8.83 -32.39 4.02 -31.36 3.97 -30.33 2.85 -29.31 3.2 -28.28 3.28 -27.25 8.17 -26.22 13.2 -25.19 13.64 -24.16 15.68 -23.14 15.48 -22.11 18.65 -21.08 20.73 -20.05 22.12 -19.02 19.62 -17.99 19.7 -16.97 19.88 -15.94 18.08 -14.91 16.51 -13.88 16.42 -12.85 18.41 -11.83 20.16 -10.8 19.78 -9.77 16.01 -8.74 8.5 -7.71 5.07 -6.68 3.64 -5.66 -0.98 -4.63 5.81 -3.6 9.01 -2.57 2.13 -1.54 -1.22 -0.51 -4.39 0.51 -2.72 1.54 -3.97 2.57 -3.93 3.6 -1.22 4.63 -1.51 5.66 -1.11 6.68 -4.73 7.71 -3.78 8.74 -4.85 9.77 -2.49 10.8 -4.7 11.83 -6.71 12.85 -7.35 13.88 -12.24 14.91 -12.23 15.94 -11.56 16.97 -12.23 17.99 -13.42 19.02 -11.58 20.05 -12.44 21.08 -14.68 22.11 -12.87 23.14 -12.43 24.16 -12.97 25.19 -7.9 26.22 -9.94 27.25 -12.65 28.28 -15.8 29.31 -18.47 30.33 -14.69 31.36 -12.25 32.39 -16.09 33.42 -15.57 34.45 -13.62 35.48 -1.51 36.5 -18.03 37.53 -14.99 38.56 -18.12 39.59 -17.1 40.62 -14.17 41.65 -12.7" class="primitive"/>
          </g>
          <g transform="translate(74.48,39.74)" id="img-e78ef153-30" stroke="#D4CA3A" class="color_Females" stroke-dasharray="none">
            <path fill="none" d="M-41.65,6.24 L -40.62 7.9 -39.59 10.5 -38.56 6.93 -37.53 5.1 -36.5 5.24 -35.48 4.45 -34.45 6.82 -33.42 7.9 -32.39 4.27 -31.36 5.5 -30.33 1.49 -29.31 2.45 -28.28 4.58 -27.25 6.73 -26.22 11.27 -25.19 11.85 -24.16 15.69 -23.14 14.65 -22.11 17.26 -21.08 20.44 -20.05 20.62 -19.02 19.76 -17.99 19.26 -16.97 18.88 -15.94 17.27 -14.91 16.02 -13.88 15.78 -12.85 16.46 -11.83 18.49 -10.8 20.19 -9.77 16.77 -8.74 10.47 -7.71 5.36 -6.68 4.79 -5.66 -1.07 -4.63 4.96 -3.6 8.91 -2.57 1.56 -1.54 -0.19 -0.51 -2.16 0.51 -1.35 1.54 -3.86 2.57 -4.29 3.6 -2.11 4.63 -1.49 5.66 -1.34 6.68 -2.29 7.71 -4.9 8.74 -3.65 9.77 -3.71 10.8 -5.6 11.83 -7.32 12.85 -8.87 13.88 -11.9 14.91 -11.67 15.94 -12.55 16.97 -11.62 17.99 -12.31 19.02 -11.48 20.05 -11.97 21.08 -12.96 22.11 -13.62 23.14 -13.06 24.16 -14.28 25.19 -8.16 26.22 -8.64 27.25 -12.42 28.28 -16.37 29.31 -15.33 30.33 -14.06 31.36 -11.19 32.39 -14.51 33.42 -15.55 34.45 -15.75 35.48 -1.49 36.5 -16.45 37.53 -13.8 38.56 -15.78 39.59 -15.31 40.62 -13.53 41.65 -12.85" class="primitive"/>
          </g>
        </g>
      </g>
    </g>
  </g>
  <g class="guide ylabels" font-size="2.82" font-family="'PT Sans Caption','Helvetica Neue','Helvetica',sans-serif" fill="rgba(108,96,107,1)" id="img-e78ef153-31">
    <g transform="translate(25.72,80.31)" id="img-e78ef153-32">
      <g class="primitive">
        <text text-anchor="end" dy="0.35em">0</text>
      </g>
    </g>
    <g transform="translate(25.72,43.66)" id="img-e78ef153-33">
      <g class="primitive">
        <text text-anchor="end" dy="0.35em">5.0×10³</text>
      </g>
    </g>
    <g transform="translate(25.72,7)" id="img-e78ef153-34">
      <g class="primitive">
        <text text-anchor="end" dy="0.35em">1.0×10⁴</text>
      </g>
    </g>
  </g>
  <g font-size="3.88" font-family="'PT Sans','Helvetica Neue','Helvetica',sans-serif" fill="rgba(86,73,85,1)" stroke="#000000" stroke-opacity="0.000" id="img-e78ef153-35">
    <g transform="translate(8.81,41.66)" id="img-e78ef153-36">
      <g class="primitive">
        <text text-anchor="middle" dy="0.35em" transform="rotate(-90,0, 2)">value</text>
      </g>
    </g>
  </g>
</g>
<defs>
  <clipPath id="img-e78ef153-13">
    <path d="M26.73,5 L 133.55 5 133.55 82.32 26.73 82.32" />
  </clipPath>
</defs>
</svg>
