<?xml version="1.0" encoding="UTF-8"?>
<svg xmlns="http://www.w3.org/2000/svg"
     xmlns:xlink="http://www.w3.org/1999/xlink"
     xmlns:gadfly="http://www.gadflyjl.org/ns"
     version="1.2"
     width="152.4mm" height="101.6mm" viewBox="0 0 152.4 101.6"
     stroke="none"
     fill="#000000"
     stroke-width="0.3"
     font-size="3.88"
>
<g class="plotroot xscalable yscalable" id="img-709651d3-1">
  <g font-size="3.88" font-family="'PT Sans','Helvetica Neue','Helvetica',sans-serif" fill="rgba(86,73,85,1)" stroke="#000000" stroke-opacity="0.000" id="img-709651d3-2">
    <g transform="translate(79.24,89.99)">
      <g class="primitive">
        <text text-anchor="middle" dy="0.6em">Year</text>
      </g>
    </g>
  </g>
  <g class="guide xlabels" font-size="2.82" font-family="'PT Sans Caption','Helvetica Neue','Helvetica',sans-serif" fill="rgba(108,96,107,1)" id="img-709651d3-3">
    <g transform="translate(26.92,83.32)">
      <g class="primitive">
        <text text-anchor="middle" dy="0.6em">1625</text>
      </g>
    </g>
    <g transform="translate(53.08,83.32)">
      <g class="primitive">
        <text text-anchor="middle" dy="0.6em">1650</text>
      </g>
    </g>
    <g transform="translate(79.24,83.32)">
      <g class="primitive">
        <text text-anchor="middle" dy="0.6em">1675</text>
      </g>
    </g>
    <g transform="translate(105.39,83.32)">
      <g class="primitive">
        <text text-anchor="middle" dy="0.6em">1700</text>
      </g>
    </g>
    <g transform="translate(131.55,83.32)">
      <g class="primitive">
        <text text-anchor="middle" dy="0.6em">1725</text>
      </g>
    </g>
  </g>
  <g class="guide colorkey" id="img-709651d3-4">
    <g fill="rgba(76,64,75,1)" font-size="2.82" font-family="'PT Sans','Helvetica Neue','Helvetica',sans-serif" id="img-709651d3-5">
      <g transform="translate(137.37,43.66)" id="img-709651d3-6" class="color_2">
        <g class="primitive">
          <text dy="0.35em">Males</text>
        </g>
      </g>
      <g transform="translate(137.37,47.28)" id="img-709651d3-7" class="color_3">
        <g class="primitive">
          <text dy="0.35em">Females</text>
        </g>
      </g>
    </g>
    <g stroke="#000000" stroke-opacity="0.000" id="img-709651d3-8">
      <g transform="translate(135.46,43.66)" id="img-709651d3-9" class="color_2" fill="rgba(0,190,255,1)">
        <path d="M-0.91,-0.91 L 0.91 -0.91 0.91 0.91 -0.91 0.91 z" class="primitive"/>
      </g>
      <g transform="translate(135.46,47.28)" id="img-709651d3-10" class="color_3" fill="rgba(211,202,57,1)">
        <path d="M-0.91,-0.91 L 0.91 -0.91 0.91 0.91 -0.91 0.91 z" class="primitive"/>
      </g>
    </g>
    <g fill="rgba(54,42,52,1)" font-size="3.88" font-family="'PT Sans','Helvetica Neue','Helvetica',sans-serif" stroke="#000000" stroke-opacity="0.000" id="img-709651d3-11">
      <g transform="translate(134.55,39.84)" id="img-709651d3-12">
        <g class="primitive">
          <text>Column</text>
        </g>
      </g>
    </g>
  </g>
  <g clip-path="url(#img-709651d3-13)">
    <g id="img-709651d3-14">
      <g pointer-events="visible" fill-opacity="0" fill="rgba(0,0,0,0)" stroke="#000000" stroke-opacity="0.000" class="guide background" id="img-709651d3-15">
        <g transform="translate(79.24,43.66)" id="img-709651d3-16">
          <path d="M-54.32,-38.66 L 54.32 -38.66 54.32 38.66 -54.32 38.66 z" class="primitive"/>
        </g>
      </g>
      <g class="guide ygridlines xfixed" stroke-dasharray="0.5,0.5" stroke-width="0.2" stroke="#D0D0E0" id="img-709651d3-17">
        <g transform="translate(79.24,80.31)" id="img-709651d3-18">
          <path fill="none" d="M-54.32,0 L 54.32 0" class="primitive"/>
        </g>
        <g transform="translate(79.24,43.66)" id="img-709651d3-19">
          <path fill="none" d="M-54.32,0 L 54.32 0" class="primitive"/>
        </g>
        <g transform="translate(79.24,7)" id="img-709651d3-20">
          <path fill="none" d="M-54.32,0 L 54.32 0" class="primitive"/>
        </g>
      </g>
      <g class="guide xgridlines yfixed" stroke-dasharray="0.5,0.5" stroke-width="0.2" stroke="#D0D0E0" id="img-709651d3-21">
        <g transform="translate(26.92,43.66)" id="img-709651d3-22">
          <path fill="none" d="M0,-38.66 L 0 38.66" class="primitive"/>
        </g>
        <g transform="translate(53.08,43.66)" id="img-709651d3-23">
          <path fill="none" d="M0,-38.66 L 0 38.66" class="primitive"/>
        </g>
        <g transform="translate(79.24,43.66)" id="img-709651d3-24">
          <path fill="none" d="M0,-38.66 L 0 38.66" class="primitive"/>
        </g>
        <g transform="translate(105.39,43.66)" id="img-709651d3-25">
          <path fill="none" d="M0,-38.66 L 0 38.66" class="primitive"/>
        </g>
        <g transform="translate(131.55,43.66)" id="img-709651d3-26">
          <path fill="none" d="M0,-38.66 L 0 38.66" class="primitive"/>
        </g>
      </g>
      <g class="plotpanel" id="img-709651d3-27">
        <metadata>
          <boundingbox value="24.91916666666667mm 5.0mm 108.63416666666664mm 77.315mm"/>
          <unitbox value="1623.088578459872 10272.795471595171 103.82284308025582 -10545.590943190344"/>
        </metadata>
        <g stroke-width="0.3" fill="rgba(0,0,0,0)" class="geometry" id="img-709651d3-28">
          <g transform="translate(73.48,37.01)" id="img-709651d3-29" stroke="#00BFFF" class="color_2" stroke-dasharray="none">
            <path fill="none" d="M-42.38,5.05 L -41.33 7.69 -40.28 10.89 -39.24 6.69 -38.19 5.49 -37.15 6.39 -36.1 5.87 -35.05 7.26 -34.01 8.83 -32.96 4.02 -31.91 3.97 -30.87 2.85 -29.82 3.2 -28.77 3.28 -27.73 8.17 -26.68 13.2 -25.64 13.64 -24.59 15.68 -23.54 15.48 -22.5 18.65 -21.45 20.73 -20.4 22.12 -19.36 19.62 -18.31 19.7 -17.26 19.88 -16.22 18.08 -15.17 16.51 -14.13 16.42 -13.08 18.41 -12.03 20.16 -10.99 19.78 -9.94 16.01 -8.89 8.5 -7.85 5.07 -6.8 3.64 -5.75 -0.98 -4.71 5.81 -3.66 9.01 -2.62 2.13 -1.57 -1.22 -0.52 -4.39 0.52 -2.72 1.57 -3.97 2.62 -3.93 3.66 -1.22 4.71 -1.51 5.75 -1.11 6.8 -4.73 7.85 -3.78 8.89 -4.85 9.94 -2.49 10.99 -4.7 12.03 -6.71 13.08 -7.35 14.13 -12.24 15.17 -12.23 16.22 -11.56 17.26 -12.23 18.31 -13.42 19.36 -11.58 20.4 -12.44 21.45 -14.68 22.5 -12.87 23.54 -12.43 24.59 -12.97 25.64 -7.9 26.68 -9.94 27.73 -12.65 28.77 -15.8 29.82 -18.47 30.87 -14.69 31.91 -12.25 32.96 -16.09 34.01 -15.57 35.05 -13.62 36.1 -1.51 37.15 -18.03 38.19 -14.99 39.24 -18.12 40.28 -17.1 41.33 -14.17 42.38 -12.7" class="primitive"/>
          </g>
          <g transform="translate(73.48,39.74)" id="img-709651d3-30" stroke="#D4CA3A" class="color_3" stroke-dasharray="none">
            <path fill="none" d="M-42.38,6.24 L -41.33 7.9 -40.28 10.5 -39.24 6.93 -38.19 5.1 -37.15 5.24 -36.1 4.45 -35.05 6.82 -34.01 7.9 -32.96 4.27 -31.91 5.5 -30.87 1.49 -29.82 2.45 -28.77 4.58 -27.73 6.73 -26.68 11.27 -25.64 11.85 -24.59 15.69 -23.54 14.65 -22.5 17.26 -21.45 20.44 -20.4 20.62 -19.36 19.76 -18.31 19.26 -17.26 18.88 -16.22 17.27 -15.17 16.02 -14.13 15.78 -13.08 16.46 -12.03 18.49 -10.99 20.19 -9.94 16.77 -8.89 10.47 -7.85 5.36 -6.8 4.79 -5.75 -1.07 -4.71 4.96 -3.66 8.91 -2.62 1.56 -1.57 -0.19 -0.52 -2.16 0.52 -1.35 1.57 -3.86 2.62 -4.29 3.66 -2.11 4.71 -1.49 5.75 -1.34 6.8 -2.29 7.85 -4.9 8.89 -3.65 9.94 -3.71 10.99 -5.6 12.03 -7.32 13.08 -8.87 14.13 -11.9 15.17 -11.67 16.22 -12.55 17.26 -11.62 18.31 -12.31 19.36 -11.48 20.4 -11.97 21.45 -12.96 22.5 -13.62 23.54 -13.06 24.59 -14.28 25.64 -8.16 26.68 -8.64 27.73 -12.42 28.77 -16.37 29.82 -15.33 30.87 -14.06 31.91 -11.19 32.96 -14.51 34.01 -15.55 35.05 -15.75 36.1 -1.49 37.15 -16.45 38.19 -13.8 39.24 -15.78 40.28 -15.31 41.33 -13.53 42.38 -12.85" class="primitive"/>
          </g>
        </g>
      </g>
    </g>
  </g>
  <g class="guide ylabels" font-size="2.82" font-family="'PT Sans Caption','Helvetica Neue','Helvetica',sans-serif" fill="rgba(108,96,107,1)" id="img-709651d3-31">
    <g transform="translate(23.92,80.31)" id="img-709651d3-32">
      <g class="primitive">
        <text text-anchor="end" dy="0.35em">0</text>
      </g>
    </g>
    <g transform="translate(23.92,43.66)" id="img-709651d3-33">
      <g class="primitive">
        <text text-anchor="end" dy="0.35em">5.0×10³</text>
      </g>
    </g>
    <g transform="translate(23.92,7)" id="img-709651d3-34">
      <g class="primitive">
        <text text-anchor="end" dy="0.35em">1.0×10⁴</text>
      </g>
    </g>
  </g>
  <g font-size="3.88" font-family="'PT Sans','Helvetica Neue','Helvetica',sans-serif" fill="rgba(86,73,85,1)" stroke="#000000" stroke-opacity="0.000" id="img-709651d3-35">
    <g transform="translate(8.81,43.66)" id="img-709651d3-36">
      <g class="primitive">
        <text text-anchor="end" dy="0.35em">y</text>
      </g>
    </g>
  </g>
</g>
<defs>
  <clipPath id="img-709651d3-13">
    <path d="M24.92,5 L 133.55 5 133.55 82.32 24.92 82.32" />
  </clipPath>
</defs>
</svg>
