<?xml version="1.0" encoding="UTF-8"?>
<svg xmlns="http://www.w3.org/2000/svg"
     xmlns:xlink="http://www.w3.org/1999/xlink"
     xmlns:gadfly="http://www.gadflyjl.org/ns"
     version="1.2"
     width="152.4mm" height="101.6mm" viewBox="0 0 152.4 101.6"
     stroke="none"
     fill="#000000"
     stroke-width="0.3"
     font-size="3.88"
>
<g stroke="#000000" stroke-opacity="0.000" fill="rgba(34,40,48,1)" id="img-937bc5e6-1">
  <g transform="translate(114.3,50.8)">
    <path d="M-38.1,-50.8 L 38.1 -50.8 38.1 50.8 -38.1 50.8 z" class="primitive"/>
  </g>
</g>
<g class="plotroot xscalable yscalable" id="img-937bc5e6-2">
  <g font-size="3.88" font-family="'PT Sans','Helvetica Neue','Helvetica',sans-serif" fill="rgba(161,161,161,1)" stroke="#000000" stroke-opacity="0.000" id="img-937bc5e6-3">
    <g transform="translate(117.75,89.99)">
      <g class="primitive">
        <text text-anchor="middle" dy="0.6em">x</text>
      </g>
    </g>
  </g>
  <g class="guide xlabels" font-size="2.82" font-family="'PT Sans Caption','Helvetica Neue','Helvetica',sans-serif" fill="rgba(161,161,161,1)" id="img-937bc5e6-4">
    <g transform="translate(98.94,83.32)">
      <g class="primitive">
        <text text-anchor="middle" dy="0.6em">0</text>
      </g>
    </g>
    <g transform="translate(108.35,83.32)">
      <g class="primitive">
        <text text-anchor="middle" dy="0.6em">2</text>
      </g>
    </g>
    <g transform="translate(117.75,83.32)">
      <g class="primitive">
        <text text-anchor="middle" dy="0.6em">4</text>
      </g>
    </g>
    <g transform="translate(127.16,83.32)">
      <g class="primitive">
        <text text-anchor="middle" dy="0.6em">6</text>
      </g>
    </g>
    <g transform="translate(136.56,83.32)">
      <g class="primitive">
        <text text-anchor="middle" dy="0.6em">8</text>
      </g>
    </g>
  </g>
  <g class="guide colorkey" id="img-937bc5e6-5">
    <g fill="rgba(161,161,161,1)" font-size="2.82" font-family="'PT Sans','Helvetica Neue','Helvetica',sans-serif" id="img-937bc5e6-6">
      <g transform="translate(143.03,41.19)" id="img-937bc5e6-7" class="color_f1">
        <g class="primitive">
          <text dy="0.35em">f<tspan style="dominant-baseline:inherit" dy="0.6em" font-size="83%">1</tspan><tspan dy="-0.498000em"></tspan></text>
        </g>
      </g>
      <g transform="translate(143.03,46.13)" id="img-937bc5e6-8" class="color_f2">
        <g class="primitive">
          <text dy="0.35em">f<tspan style="dominant-baseline:inherit" dy="0.6em" font-size="83%">2</tspan><tspan dy="-0.498000em"></tspan></text>
        </g>
      </g>
      <g transform="translate(143.03,51.07)" id="img-937bc5e6-9" class="color_f3">
        <g class="primitive">
          <text dy="0.35em">f<tspan style="dominant-baseline:inherit" dy="0.6em" font-size="83%">3</tspan><tspan dy="-0.498000em"></tspan></text>
        </g>
      </g>
    </g>
    <g stroke="#000000" stroke-opacity="0.000" id="img-937bc5e6-10">
      <g transform="translate(140.8,41.19)" id="img-937bc5e6-11" class="color_f1" fill="rgba(254,67,101,1)">
        <path d="M-1.24,-1.24 L 1.24 -1.24 1.24 1.24 -1.24 1.24 z" class="primitive"/>
      </g>
      <g transform="translate(140.8,46.13)" id="img-937bc5e6-12" class="color_f2" fill="rgba(236,162,92,1)">
        <path d="M-1.24,-1.24 L 1.24 -1.24 1.24 1.24 -1.24 1.24 z" class="primitive"/>
      </g>
      <g transform="translate(140.8,51.07)" id="img-937bc5e6-13" class="color_f3" fill="rgba(63,151,120,1)">
        <path d="M-1.24,-1.24 L 1.24 -1.24 1.24 1.24 -1.24 1.24 z" class="primitive"/>
      </g>
    </g>
    <g fill="rgba(161,161,161,1)" font-size="3.88" font-family="'PT Sans','Helvetica Neue','Helvetica',sans-serif" stroke="#000000" stroke-opacity="0.000" id="img-937bc5e6-14">
      <g transform="translate(139.56,36.05)" id="img-937bc5e6-15">
        <g class="primitive">
          <text>Color</text>
        </g>
      </g>
    </g>
  </g>
  <g clip-path="url(#img-937bc5e6-16)">
    <g id="img-937bc5e6-17">
      <g pointer-events="visible" fill-opacity="0" fill="rgba(34,40,48,1)" stroke="#000000" stroke-opacity="0.000" class="guide background" id="img-937bc5e6-18">
        <g transform="translate(117.75,43.66)" id="img-937bc5e6-19">
          <path d="M-20.81,-38.66 L 20.81 -38.66 20.81 38.66 -20.81 38.66 z" class="primitive"/>
        </g>
      </g>
      <g class="guide ygridlines xfixed" stroke-dasharray="0.5,0.5" stroke-width="0.2" stroke="#575757" id="img-937bc5e6-20">
        <g transform="translate(117.75,80.32)" id="img-937bc5e6-21">
          <path fill="none" d="M-20.81,0 L 20.81 0" class="primitive"/>
        </g>
        <g transform="translate(117.75,61.99)" id="img-937bc5e6-22">
          <path fill="none" d="M-20.81,0 L 20.81 0" class="primitive"/>
        </g>
        <g transform="translate(117.75,43.66)" id="img-937bc5e6-23">
          <path fill="none" d="M-20.81,0 L 20.81 0" class="primitive"/>
        </g>
        <g transform="translate(117.75,25.33)" id="img-937bc5e6-24">
          <path fill="none" d="M-20.81,0 L 20.81 0" class="primitive"/>
        </g>
        <g transform="translate(117.75,7)" id="img-937bc5e6-25">
          <path fill="none" d="M-20.81,0 L 20.81 0" class="primitive"/>
        </g>
      </g>
      <g class="guide xgridlines yfixed" stroke-dasharray="0.5,0.5" stroke-width="0.2" stroke="#575757" id="img-937bc5e6-26">
        <g transform="translate(98.94,43.66)" id="img-937bc5e6-27">
          <path fill="none" d="M0,-38.66 L 0 38.66" class="primitive"/>
        </g>
        <g transform="translate(108.35,43.66)" id="img-937bc5e6-28">
          <path fill="none" d="M0,-38.66 L 0 38.66" class="primitive"/>
        </g>
        <g transform="translate(117.75,43.66)" id="img-937bc5e6-29">
          <path fill="none" d="M0,-38.66 L 0 38.66" class="primitive"/>
        </g>
        <g transform="translate(127.16,43.66)" id="img-937bc5e6-30">
          <path fill="none" d="M0,-38.66 L 0 38.66" class="primitive"/>
        </g>
        <g transform="translate(136.56,43.66)" id="img-937bc5e6-31">
          <path fill="none" d="M0,-38.66 L 0 38.66" class="primitive"/>
        </g>
      </g>
      <g class="plotpanel" id="img-937bc5e6-32">
        <metadata>
          <boundingbox value="96.945mm 5.0mm 41.618333333333325mm 77.315mm"/>
          <unitbox value="-0.4253245314784459 210.91181886380687 8.850649062956892 -421.82363772761374"/>
        </metadata>
        <g stroke-width="2" fill="rgba(0,0,0,0)" class="geometry" id="img-937bc5e6-33">
          <g transform="translate(113.72,43.66)" id="img-937bc5e6-34" stroke="#FE4365" class="color_f1" stroke-dasharray="4,1">
            <path fill="none" d="M-14.77,-0 L -14.65 -0 -14.54 -0.01 -14.42 -0.01 -14.3 -0.02 -14.18 -0.02 -14.06 -0.03 -13.94 -0.03 -13.82 -0.04 -13.7 -0.04 -13.59 -0.05 -13.47 -0.05 -13.35 -0.05 -13.23 -0.06 -13.11 -0.06 -12.99 -0.07 -12.87 -0.07 -12.76 -0.08 -12.64 -0.08 -12.52 -0.08 -12.4 -0.09 -12.28 -0.09 -12.16 -0.1 -12.04 -0.1 -11.92 -0.1 -11.81 -0.11 -11.69 -0.11 -11.57 -0.12 -11.45 -0.12 -11.33 -0.12 -11.21 -0.13 -11.09 -0.13 -10.98 -0.13 -10.86 -0.14 -10.74 -0.14 -10.62 -0.14 -10.5 -0.14 -10.38 -0.15 -10.26 -0.15 -10.15 -0.15 -10.03 -0.16 -9.91 -0.16 -9.79 -0.16 -9.67 -0.16 -9.55 -0.16 -9.43 -0.17 -9.31 -0.17 -9.2 -0.17 -9.08 -0.17 -8.96 -0.17 -8.84 -0.17 -8.72 -0.18 -8.6 -0.18 -8.48 -0.18 -8.37 -0.18 -8.25 -0.18 -8.13 -0.18 -8.01 -0.18 -7.89 -0.18 -7.77 -0.18 -7.65 -0.18 -7.53 -0.18 -7.42 -0.18 -7.3 -0.18 -7.18 -0.18 -7.06 -0.18 -6.94 -0.18 -6.82 -0.18 -6.7 -0.18 -6.59 -0.18 -6.47 -0.18 -6.35 -0.18 -6.23 -0.18 -6.11 -0.18 -5.99 -0.18 -5.87 -0.17 -5.75 -0.17 -5.64 -0.17 -5.52 -0.17 -5.4 -0.17 -5.28 -0.17 -5.16 -0.16 -5.04 -0.16 -4.92 -0.16 -4.81 -0.16 -4.69 -0.15 -4.57 -0.15 -4.45 -0.15 -4.33 -0.15 -4.21 -0.14 -4.09 -0.14 -3.97 -0.14 -3.86 -0.13 -3.74 -0.13 -3.62 -0.13 -3.5 -0.12 -3.38 -0.12 -3.26 -0.12 -3.14 -0.11 -3.03 -0.11 -2.91 -0.11 -2.79 -0.1 -2.67 -0.1 -2.55 -0.09 -2.43 -0.09 -2.31 -0.09 -2.2 -0.08 -2.08 -0.08 -1.96 -0.07 -1.84 -0.07 -1.72 -0.07 -1.6 -0.06 -1.48 -0.06 -1.36 -0.05 -1.25 -0.05 -1.13 -0.04 -1.01 -0.04 -0.89 -0.03 -0.77 -0.03 -0.65 -0.03 -0.53 -0.02 -0.42 -0.02 -0.3 -0.01 -0.18 -0.01 -0.06 -0 0.06 0 0.18 0.01 0.3 0.01 0.42 0.02 0.53 0.02 0.65 0.03 0.77 0.03 0.89 0.03 1.01 0.04 1.13 0.04 1.25 0.05 1.36 0.05 1.48 0.06 1.6 0.06 1.72 0.07 1.84 0.07 1.96 0.07 2.08 0.08 2.2 0.08 2.31 0.09 2.43 0.09 2.55 0.09 2.67 0.1 2.79 0.1 2.91 0.11 3.03 0.11 3.14 0.11 3.26 0.12 3.38 0.12 3.5 0.12 3.62 0.13 3.74 0.13 3.86 0.13 3.97 0.14 4.09 0.14 4.21 0.14 4.33 0.15 4.45 0.15 4.57 0.15 4.69 0.15 4.81 0.16 4.92 0.16 5.04 0.16 5.16 0.16 5.28 0.17 5.4 0.17 5.52 0.17 5.64 0.17 5.75 0.17 5.87 0.17 5.99 0.18 6.11 0.18 6.23 0.18 6.35 0.18 6.47 0.18 6.59 0.18 6.7 0.18 6.82 0.18 6.94 0.18 7.06 0.18 7.18 0.18 7.3 0.18 7.42 0.18 7.53 0.18 7.65 0.18 7.77 0.18 7.89 0.18 8.01 0.18 8.13 0.18 8.25 0.18 8.37 0.18 8.48 0.18 8.6 0.18 8.72 0.18 8.84 0.17 8.96 0.17 9.08 0.17 9.2 0.17 9.31 0.17 9.43 0.17 9.55 0.16 9.67 0.16 9.79 0.16 9.91 0.16 10.03 0.16 10.15 0.15 10.26 0.15 10.38 0.15 10.5 0.14 10.62 0.14 10.74 0.14 10.86 0.14 10.98 0.13 11.09 0.13 11.21 0.13 11.33 0.12 11.45 0.12 11.57 0.12 11.69 0.11 11.81 0.11 11.92 0.1 12.04 0.1 12.16 0.1 12.28 0.09 12.4 0.09 12.52 0.08 12.64 0.08 12.76 0.08 12.87 0.07 12.99 0.07 13.11 0.06 13.23 0.06 13.35 0.05 13.47 0.05 13.59 0.05 13.7 0.04 13.82 0.04 13.94 0.03 14.06 0.03 14.18 0.02 14.3 0.02 14.42 0.01 14.54 0.01 14.65 0 14.77 -0" class="primitive"/>
          </g>
          <g transform="translate(113.72,43.66)" id="img-937bc5e6-35" stroke="#ECA25C" class="color_f2" stroke-dasharray="4,1">
            <path fill="none" d="M-14.77,-0.18 L -14.65 -0.18 -14.54 -0.18 -14.42 -0.18 -14.3 -0.18 -14.18 -0.18 -14.06 -0.18 -13.94 -0.18 -13.82 -0.18 -13.7 -0.18 -13.59 -0.18 -13.47 -0.18 -13.35 -0.17 -13.23 -0.17 -13.11 -0.17 -12.99 -0.17 -12.87 -0.17 -12.76 -0.17 -12.64 -0.16 -12.52 -0.16 -12.4 -0.16 -12.28 -0.16 -12.16 -0.16 -12.04 -0.15 -11.92 -0.15 -11.81 -0.15 -11.69 -0.14 -11.57 -0.14 -11.45 -0.14 -11.33 -0.14 -11.21 -0.13 -11.09 -0.13 -10.98 -0.13 -10.86 -0.12 -10.74 -0.12 -10.62 -0.12 -10.5 -0.11 -10.38 -0.11 -10.26 -0.1 -10.15 -0.1 -10.03 -0.1 -9.91 -0.09 -9.79 -0.09 -9.67 -0.08 -9.55 -0.08 -9.43 -0.08 -9.31 -0.07 -9.2 -0.07 -9.08 -0.06 -8.96 -0.06 -8.84 -0.06 -8.72 -0.05 -8.6 -0.05 -8.48 -0.04 -8.37 -0.04 -8.25 -0.03 -8.13 -0.03 -8.01 -0.02 -7.89 -0.02 -7.77 -0.01 -7.65 -0.01 -7.53 -0.01 -7.42 -0 -7.3 0 -7.18 0.01 -7.06 0.01 -6.94 0.02 -6.82 0.02 -6.7 0.03 -6.59 0.03 -6.47 0.04 -6.35 0.04 -6.23 0.05 -6.11 0.05 -5.99 0.05 -5.87 0.06 -5.75 0.06 -5.64 0.07 -5.52 0.07 -5.4 0.08 -5.28 0.08 -5.16 0.08 -5.04 0.09 -4.92 0.09 -4.81 0.1 -4.69 0.1 -4.57 0.1 -4.45 0.11 -4.33 0.11 -4.21 0.12 -4.09 0.12 -3.97 0.12 -3.86 0.13 -3.74 0.13 -3.62 0.13 -3.5 0.14 -3.38 0.14 -3.26 0.14 -3.14 0.14 -3.03 0.15 -2.91 0.15 -2.79 0.15 -2.67 0.16 -2.55 0.16 -2.43 0.16 -2.31 0.16 -2.2 0.16 -2.08 0.17 -1.96 0.17 -1.84 0.17 -1.72 0.17 -1.6 0.17 -1.48 0.17 -1.36 0.18 -1.25 0.18 -1.13 0.18 -1.01 0.18 -0.89 0.18 -0.77 0.18 -0.65 0.18 -0.53 0.18 -0.42 0.18 -0.3 0.18 -0.18 0.18 -0.06 0.18 0.06 0.18 0.18 0.18 0.3 0.18 0.42 0.18 0.53 0.18 0.65 0.18 0.77 0.18 0.89 0.18 1.01 0.18 1.13 0.18 1.25 0.18 1.36 0.18 1.48 0.17 1.6 0.17 1.72 0.17 1.84 0.17 1.96 0.17 2.08 0.17 2.2 0.16 2.31 0.16 2.43 0.16 2.55 0.16 2.67 0.16 2.79 0.15 2.91 0.15 3.03 0.15 3.14 0.14 3.26 0.14 3.38 0.14 3.5 0.14 3.62 0.13 3.74 0.13 3.86 0.13 3.97 0.12 4.09 0.12 4.21 0.12 4.33 0.11 4.45 0.11 4.57 0.1 4.69 0.1 4.81 0.1 4.92 0.09 5.04 0.09 5.16 0.08 5.28 0.08 5.4 0.08 5.52 0.07 5.64 0.07 5.75 0.06 5.87 0.06 5.99 0.05 6.11 0.05 6.23 0.05 6.35 0.04 6.47 0.04 6.59 0.03 6.7 0.03 6.82 0.02 6.94 0.02 7.06 0.01 7.18 0.01 7.3 0 7.42 -0 7.53 -0.01 7.65 -0.01 7.77 -0.01 7.89 -0.02 8.01 -0.02 8.13 -0.03 8.25 -0.03 8.37 -0.04 8.48 -0.04 8.6 -0.05 8.72 -0.05 8.84 -0.06 8.96 -0.06 9.08 -0.06 9.2 -0.07 9.31 -0.07 9.43 -0.08 9.55 -0.08 9.67 -0.08 9.79 -0.09 9.91 -0.09 10.03 -0.1 10.15 -0.1 10.26 -0.1 10.38 -0.11 10.5 -0.11 10.62 -0.12 10.74 -0.12 10.86 -0.12 10.98 -0.13 11.09 -0.13 11.21 -0.13 11.33 -0.14 11.45 -0.14 11.57 -0.14 11.69 -0.14 11.81 -0.15 11.92 -0.15 12.04 -0.15 12.16 -0.16 12.28 -0.16 12.4 -0.16 12.52 -0.16 12.64 -0.16 12.76 -0.17 12.87 -0.17 12.99 -0.17 13.11 -0.17 13.23 -0.17 13.35 -0.17 13.47 -0.18 13.59 -0.18 13.7 -0.18 13.82 -0.18 13.94 -0.18 14.06 -0.18 14.18 -0.18 14.3 -0.18 14.42 -0.18 14.54 -0.18 14.65 -0.18 14.77 -0.18" class="primitive"/>
          </g>
          <g transform="translate(113.72,43.66)" id="img-937bc5e6-36" stroke="#3F9778" class="color_f3" stroke-dasharray="4,1">
            <path fill="none" d="M-14.77,-0 L -14.65 -0 -14.54 -0.01 -14.42 -0.01 -14.3 -0.02 -14.18 -0.02 -14.06 -0.03 -13.94 -0.03 -13.82 -0.04 -13.7 -0.04 -13.59 -0.05 -13.47 -0.05 -13.35 -0.06 -13.23 -0.06 -13.11 -0.07 -12.99 -0.07 -12.87 -0.08 -12.76 -0.08 -12.64 -0.09 -12.52 -0.1 -12.4 -0.1 -12.28 -0.11 -12.16 -0.11 -12.04 -0.12 -11.92 -0.13 -11.81 -0.13 -11.69 -0.14 -11.57 -0.15 -11.45 -0.16 -11.33 -0.16 -11.21 -0.17 -11.09 -0.18 -10.98 -0.19 -10.86 -0.2 -10.74 -0.21 -10.62 -0.22 -10.5 -0.24 -10.38 -0.25 -10.26 -0.26 -10.15 -0.28 -10.03 -0.29 -9.91 -0.31 -9.79 -0.33 -9.67 -0.35 -9.55 -0.37 -9.43 -0.39 -9.31 -0.42 -9.2 -0.45 -9.08 -0.49 -8.96 -0.53 -8.84 -0.57 -8.72 -0.63 -8.6 -0.69 -8.48 -0.77 -8.37 -0.87 -8.25 -0.99 -8.13 -1.15 -8.01 -1.38 -7.89 -1.7 -7.77 -2.23 -7.65 -3.22 -7.53 -5.81 -7.42 -29.05 -7.3 9.68 -7.18 4.15 -7.06 2.64 -6.94 1.93 -6.82 1.52 -6.7 1.25 -6.59 1.07 -6.47 0.93 -6.35 0.82 -6.23 0.73 -6.11 0.66 -5.99 0.6 -5.87 0.55 -5.75 0.51 -5.64 0.47 -5.52 0.44 -5.4 0.41 -5.28 0.38 -5.16 0.36 -5.04 0.34 -4.92 0.32 -4.81 0.3 -4.69 0.28 -4.57 0.27 -4.45 0.25 -4.33 0.24 -4.21 0.23 -4.09 0.22 -3.97 0.21 -3.86 0.2 -3.74 0.19 -3.62 0.18 -3.5 0.17 -3.38 0.16 -3.26 0.15 -3.14 0.14 -3.03 0.14 -2.91 0.13 -2.79 0.12 -2.67 0.12 -2.55 0.11 -2.43 0.1 -2.31 0.1 -2.2 0.09 -2.08 0.09 -1.96 0.08 -1.84 0.08 -1.72 0.07 -1.6 0.06 -1.48 0.06 -1.36 0.05 -1.25 0.05 -1.13 0.04 -1.01 0.04 -0.89 0.04 -0.77 0.03 -0.65 0.03 -0.53 0.02 -0.42 0.02 -0.3 0.01 -0.18 0.01 -0.06 0 0.06 -0 0.18 -0.01 0.3 -0.01 0.42 -0.02 0.53 -0.02 0.65 -0.03 0.77 -0.03 0.89 -0.04 1.01 -0.04 1.13 -0.04 1.25 -0.05 1.36 -0.05 1.48 -0.06 1.6 -0.06 1.72 -0.07 1.84 -0.08 1.96 -0.08 2.08 -0.09 2.2 -0.09 2.31 -0.1 2.43 -0.1 2.55 -0.11 2.67 -0.12 2.79 -0.12 2.91 -0.13 3.03 -0.14 3.14 -0.14 3.26 -0.15 3.38 -0.16 3.5 -0.17 3.62 -0.18 3.74 -0.19 3.86 -0.2 3.97 -0.21 4.09 -0.22 4.21 -0.23 4.33 -0.24 4.45 -0.25 4.57 -0.27 4.69 -0.28 4.81 -0.3 4.92 -0.32 5.04 -0.34 5.16 -0.36 5.28 -0.38 5.4 -0.41 5.52 -0.44 5.64 -0.47 5.75 -0.51 5.87 -0.55 5.99 -0.6 6.11 -0.66 6.23 -0.73 6.35 -0.82 6.47 -0.93 6.59 -1.07 6.7 -1.25 6.82 -1.52 6.94 -1.93 7.06 -2.64 7.18 -4.15 7.3 -9.68 7.42 29.05 7.53 5.81 7.65 3.22 7.77 2.23 7.89 1.7 8.01 1.38 8.13 1.15 8.25 0.99 8.37 0.87 8.48 0.77 8.6 0.69 8.72 0.63 8.84 0.57 8.96 0.53 9.08 0.49 9.2 0.45 9.31 0.42 9.43 0.39 9.55 0.37 9.67 0.35 9.79 0.33 9.91 0.31 10.03 0.29 10.15 0.28 10.26 0.26 10.38 0.25 10.5 0.24 10.62 0.22 10.74 0.21 10.86 0.2 10.98 0.19 11.09 0.18 11.21 0.17 11.33 0.16 11.45 0.16 11.57 0.15 11.69 0.14 11.81 0.13 11.92 0.13 12.04 0.12 12.16 0.11 12.28 0.11 12.4 0.1 12.52 0.1 12.64 0.09 12.76 0.08 12.87 0.08 12.99 0.07 13.11 0.07 13.23 0.06 13.35 0.06 13.47 0.05 13.59 0.05 13.7 0.04 13.82 0.04 13.94 0.03 14.06 0.03 14.18 0.02 14.3 0.02 14.42 0.01 14.54 0.01 14.65 0 14.77 -0" class="primitive"/>
          </g>
        </g>
      </g>
    </g>
  </g>
  <g class="guide ylabels" font-size="2.82" font-family="'PT Sans Caption','Helvetica Neue','Helvetica',sans-serif" fill="rgba(161,161,161,1)" id="img-937bc5e6-37">
    <g transform="translate(95.94,80.32)" id="img-937bc5e6-38">
      <g class="primitive">
        <text text-anchor="end" dy="0.35em">-200</text>
      </g>
    </g>
    <g transform="translate(95.94,61.99)" id="img-937bc5e6-39">
      <g class="primitive">
        <text text-anchor="end" dy="0.35em">-100</text>
      </g>
    </g>
    <g transform="translate(95.94,43.66)" id="img-937bc5e6-40">
      <g class="primitive">
        <text text-anchor="end" dy="0.35em">0</text>
      </g>
    </g>
    <g transform="translate(95.94,25.33)" id="img-937bc5e6-41">
      <g class="primitive">
        <text text-anchor="end" dy="0.35em">100</text>
      </g>
    </g>
    <g transform="translate(95.94,7)" id="img-937bc5e6-42">
      <g class="primitive">
        <text text-anchor="end" dy="0.35em">200</text>
      </g>
    </g>
  </g>
  <g font-size="3.88" font-family="'PT Sans','Helvetica Neue','Helvetica',sans-serif" fill="rgba(161,161,161,1)" stroke="#000000" stroke-opacity="0.000" id="img-937bc5e6-43">
    <g transform="translate(85.01,41.66)" id="img-937bc5e6-44">
      <g class="primitive">
        <text text-anchor="middle" dy="0.35em" transform="rotate(-90,0, 2)">f(x)</text>
      </g>
    </g>
  </g>
</g>
<g stroke="#000000" stroke-opacity="0.000" fill="rgba(34,40,48,1)" id="img-937bc5e6-45">
  <g transform="translate(38.1,50.8)" id="img-937bc5e6-46">
    <path d="M-38.1,-50.8 L 38.1 -50.8 38.1 50.8 -38.1 50.8 z" class="primitive"/>
  </g>
</g>
<g class="plotroot xscalable yscalable" id="img-937bc5e6-47">
  <g font-size="3.88" font-family="'PT Sans','Helvetica Neue','Helvetica',sans-serif" fill="rgba(161,161,161,1)" stroke="#000000" stroke-opacity="0.000" id="img-937bc5e6-48">
    <g transform="translate(41.55,89.99)" id="img-937bc5e6-49">
      <g class="primitive">
        <text text-anchor="middle" dy="0.6em">x</text>
      </g>
    </g>
  </g>
  <g class="guide xlabels" font-size="2.82" font-family="'PT Sans Caption','Helvetica Neue','Helvetica',sans-serif" fill="rgba(161,161,161,1)" id="img-937bc5e6-50">
    <g transform="translate(22.74,83.32)" id="img-937bc5e6-51">
      <g class="primitive">
        <text text-anchor="middle" dy="0.6em">0</text>
      </g>
    </g>
    <g transform="translate(32.15,83.32)" id="img-937bc5e6-52">
      <g class="primitive">
        <text text-anchor="middle" dy="0.6em">2</text>
      </g>
    </g>
    <g transform="translate(41.55,83.32)" id="img-937bc5e6-53">
      <g class="primitive">
        <text text-anchor="middle" dy="0.6em">4</text>
      </g>
    </g>
    <g transform="translate(50.96,83.32)" id="img-937bc5e6-54">
      <g class="primitive">
        <text text-anchor="middle" dy="0.6em">6</text>
      </g>
    </g>
    <g transform="translate(60.36,83.32)" id="img-937bc5e6-55">
      <g class="primitive">
        <text text-anchor="middle" dy="0.6em">8</text>
      </g>
    </g>
  </g>
  <g class="guide colorkey" id="img-937bc5e6-56">
    <g fill="rgba(161,161,161,1)" font-size="2.82" font-family="'PT Sans','Helvetica Neue','Helvetica',sans-serif" id="img-937bc5e6-57">
      <g transform="translate(66.83,41.19)" id="img-937bc5e6-58" class="color_f1">
        <g class="primitive">
          <text dy="0.35em">f<tspan style="dominant-baseline:inherit" dy="0.6em" font-size="83%">1</tspan><tspan dy="-0.498000em"></tspan></text>
        </g>
      </g>
      <g transform="translate(66.83,46.13)" id="img-937bc5e6-59" class="color_f2">
        <g class="primitive">
          <text dy="0.35em">f<tspan style="dominant-baseline:inherit" dy="0.6em" font-size="83%">2</tspan><tspan dy="-0.498000em"></tspan></text>
        </g>
      </g>
      <g transform="translate(66.83,51.07)" id="img-937bc5e6-60" class="color_f3">
        <g class="primitive">
          <text dy="0.35em">f<tspan style="dominant-baseline:inherit" dy="0.6em" font-size="83%">3</tspan><tspan dy="-0.498000em"></tspan></text>
        </g>
      </g>
    </g>
    <g stroke="#000000" stroke-opacity="0.000" id="img-937bc5e6-61">
      <g transform="translate(64.6,41.19)" id="img-937bc5e6-62" class="color_f1" fill="rgba(254,67,101,1)">
        <path d="M-1.24,-1.24 L 1.24 -1.24 1.24 1.24 -1.24 1.24 z" class="primitive"/>
      </g>
      <g transform="translate(64.6,46.13)" id="img-937bc5e6-63" class="color_f2" fill="rgba(236,162,92,1)">
        <path d="M-1.24,-1.24 L 1.24 -1.24 1.24 1.24 -1.24 1.24 z" class="primitive"/>
      </g>
      <g transform="translate(64.6,51.07)" id="img-937bc5e6-64" class="color_f3" fill="rgba(63,151,120,1)">
        <path d="M-1.24,-1.24 L 1.24 -1.24 1.24 1.24 -1.24 1.24 z" class="primitive"/>
      </g>
    </g>
    <g fill="rgba(161,161,161,1)" font-size="3.88" font-family="'PT Sans','Helvetica Neue','Helvetica',sans-serif" stroke="#000000" stroke-opacity="0.000" id="img-937bc5e6-65">
      <g transform="translate(63.36,36.05)" id="img-937bc5e6-66">
        <g class="primitive">
          <text>Color</text>
        </g>
      </g>
    </g>
  </g>
  <g clip-path="url(#img-937bc5e6-67)">
    <g id="img-937bc5e6-68">
      <g pointer-events="visible" fill-opacity="0" fill="rgba(34,40,48,1)" stroke="#000000" stroke-opacity="0.000" class="guide background" id="img-937bc5e6-69">
        <g transform="translate(41.55,43.66)" id="img-937bc5e6-70">
          <path d="M-20.81,-38.66 L 20.81 -38.66 20.81 38.66 -20.81 38.66 z" class="primitive"/>
        </g>
      </g>
      <g class="guide ygridlines xfixed" stroke-dasharray="0.5,0.5" stroke-width="0.2" stroke="#575757" id="img-937bc5e6-71">
        <g transform="translate(41.55,80.32)" id="img-937bc5e6-72">
          <path fill="none" d="M-20.81,0 L 20.81 0" class="primitive"/>
        </g>
        <g transform="translate(41.55,61.99)" id="img-937bc5e6-73">
          <path fill="none" d="M-20.81,0 L 20.81 0" class="primitive"/>
        </g>
        <g transform="translate(41.55,43.66)" id="img-937bc5e6-74">
          <path fill="none" d="M-20.81,0 L 20.81 0" class="primitive"/>
        </g>
        <g transform="translate(41.55,25.33)" id="img-937bc5e6-75">
          <path fill="none" d="M-20.81,0 L 20.81 0" class="primitive"/>
        </g>
        <g transform="translate(41.55,7)" id="img-937bc5e6-76">
          <path fill="none" d="M-20.81,0 L 20.81 0" class="primitive"/>
        </g>
      </g>
      <g class="guide xgridlines yfixed" stroke-dasharray="0.5,0.5" stroke-width="0.2" stroke="#575757" id="img-937bc5e6-77">
        <g transform="translate(22.74,43.66)" id="img-937bc5e6-78">
          <path fill="none" d="M0,-38.66 L 0 38.66" class="primitive"/>
        </g>
        <g transform="translate(32.15,43.66)" id="img-937bc5e6-79">
          <path fill="none" d="M0,-38.66 L 0 38.66" class="primitive"/>
        </g>
        <g transform="translate(41.55,43.66)" id="img-937bc5e6-80">
          <path fill="none" d="M0,-38.66 L 0 38.66" class="primitive"/>
        </g>
        <g transform="translate(50.96,43.66)" id="img-937bc5e6-81">
          <path fill="none" d="M0,-38.66 L 0 38.66" class="primitive"/>
        </g>
        <g transform="translate(60.36,43.66)" id="img-937bc5e6-82">
          <path fill="none" d="M0,-38.66 L 0 38.66" class="primitive"/>
        </g>
      </g>
      <g class="plotpanel" id="img-937bc5e6-83">
        <metadata>
          <boundingbox value="20.744999999999997mm 5.0mm 41.618333333333325mm 77.315mm"/>
          <unitbox value="-0.4253245314784459 210.91181886380687 8.850649062956892 -421.82363772761374"/>
        </metadata>
        <g stroke-width="1" fill="rgba(0,0,0,0)" class="geometry" id="img-937bc5e6-84">
          <g transform="translate(37.52,43.66)" id="img-937bc5e6-85" stroke="#FE4365" class="color_f1" stroke-dasharray="none">
            <path fill="none" d="M-14.77,-0 L -14.65 -0 -14.54 -0.01 -14.42 -0.01 -14.3 -0.02 -14.18 -0.02 -14.06 -0.03 -13.94 -0.03 -13.82 -0.04 -13.7 -0.04 -13.59 -0.05 -13.47 -0.05 -13.35 -0.05 -13.23 -0.06 -13.11 -0.06 -12.99 -0.07 -12.87 -0.07 -12.76 -0.08 -12.64 -0.08 -12.52 -0.08 -12.4 -0.09 -12.28 -0.09 -12.16 -0.1 -12.04 -0.1 -11.92 -0.1 -11.81 -0.11 -11.69 -0.11 -11.57 -0.12 -11.45 -0.12 -11.33 -0.12 -11.21 -0.13 -11.09 -0.13 -10.98 -0.13 -10.86 -0.14 -10.74 -0.14 -10.62 -0.14 -10.5 -0.14 -10.38 -0.15 -10.26 -0.15 -10.15 -0.15 -10.03 -0.16 -9.91 -0.16 -9.79 -0.16 -9.67 -0.16 -9.55 -0.16 -9.43 -0.17 -9.31 -0.17 -9.2 -0.17 -9.08 -0.17 -8.96 -0.17 -8.84 -0.17 -8.72 -0.18 -8.6 -0.18 -8.48 -0.18 -8.37 -0.18 -8.25 -0.18 -8.13 -0.18 -8.01 -0.18 -7.89 -0.18 -7.77 -0.18 -7.65 -0.18 -7.53 -0.18 -7.42 -0.18 -7.3 -0.18 -7.18 -0.18 -7.06 -0.18 -6.94 -0.18 -6.82 -0.18 -6.7 -0.18 -6.59 -0.18 -6.47 -0.18 -6.35 -0.18 -6.23 -0.18 -6.11 -0.18 -5.99 -0.18 -5.87 -0.17 -5.75 -0.17 -5.64 -0.17 -5.52 -0.17 -5.4 -0.17 -5.28 -0.17 -5.16 -0.16 -5.04 -0.16 -4.92 -0.16 -4.81 -0.16 -4.69 -0.15 -4.57 -0.15 -4.45 -0.15 -4.33 -0.15 -4.21 -0.14 -4.09 -0.14 -3.97 -0.14 -3.86 -0.13 -3.74 -0.13 -3.62 -0.13 -3.5 -0.12 -3.38 -0.12 -3.26 -0.12 -3.14 -0.11 -3.03 -0.11 -2.91 -0.11 -2.79 -0.1 -2.67 -0.1 -2.55 -0.09 -2.43 -0.09 -2.31 -0.09 -2.2 -0.08 -2.08 -0.08 -1.96 -0.07 -1.84 -0.07 -1.72 -0.07 -1.6 -0.06 -1.48 -0.06 -1.36 -0.05 -1.25 -0.05 -1.13 -0.04 -1.01 -0.04 -0.89 -0.03 -0.77 -0.03 -0.65 -0.03 -0.53 -0.02 -0.42 -0.02 -0.3 -0.01 -0.18 -0.01 -0.06 -0 0.06 0 0.18 0.01 0.3 0.01 0.42 0.02 0.53 0.02 0.65 0.03 0.77 0.03 0.89 0.03 1.01 0.04 1.13 0.04 1.25 0.05 1.36 0.05 1.48 0.06 1.6 0.06 1.72 0.07 1.84 0.07 1.96 0.07 2.08 0.08 2.2 0.08 2.31 0.09 2.43 0.09 2.55 0.09 2.67 0.1 2.79 0.1 2.91 0.11 3.03 0.11 3.14 0.11 3.26 0.12 3.38 0.12 3.5 0.12 3.62 0.13 3.74 0.13 3.86 0.13 3.97 0.14 4.09 0.14 4.21 0.14 4.33 0.15 4.45 0.15 4.57 0.15 4.69 0.15 4.81 0.16 4.92 0.16 5.04 0.16 5.16 0.16 5.28 0.17 5.4 0.17 5.52 0.17 5.64 0.17 5.75 0.17 5.87 0.17 5.99 0.18 6.11 0.18 6.23 0.18 6.35 0.18 6.47 0.18 6.59 0.18 6.7 0.18 6.82 0.18 6.94 0.18 7.06 0.18 7.18 0.18 7.3 0.18 7.42 0.18 7.53 0.18 7.65 0.18 7.77 0.18 7.89 0.18 8.01 0.18 8.13 0.18 8.25 0.18 8.37 0.18 8.48 0.18 8.6 0.18 8.72 0.18 8.84 0.17 8.96 0.17 9.08 0.17 9.2 0.17 9.31 0.17 9.43 0.17 9.55 0.16 9.67 0.16 9.79 0.16 9.91 0.16 10.03 0.16 10.15 0.15 10.26 0.15 10.38 0.15 10.5 0.14 10.62 0.14 10.74 0.14 10.86 0.14 10.98 0.13 11.09 0.13 11.21 0.13 11.33 0.12 11.45 0.12 11.57 0.12 11.69 0.11 11.81 0.11 11.92 0.1 12.04 0.1 12.16 0.1 12.28 0.09 12.4 0.09 12.52 0.08 12.64 0.08 12.76 0.08 12.87 0.07 12.99 0.07 13.11 0.06 13.23 0.06 13.35 0.05 13.47 0.05 13.59 0.05 13.7 0.04 13.82 0.04 13.94 0.03 14.06 0.03 14.18 0.02 14.3 0.02 14.42 0.01 14.54 0.01 14.65 0 14.77 -0" class="primitive"/>
          </g>
          <g transform="translate(37.52,43.66)" id="img-937bc5e6-86" stroke="#ECA25C" class="color_f2" stroke-dasharray="none">
            <path fill="none" d="M-14.77,-0.18 L -14.65 -0.18 -14.54 -0.18 -14.42 -0.18 -14.3 -0.18 -14.18 -0.18 -14.06 -0.18 -13.94 -0.18 -13.82 -0.18 -13.7 -0.18 -13.59 -0.18 -13.47 -0.18 -13.35 -0.17 -13.23 -0.17 -13.11 -0.17 -12.99 -0.17 -12.87 -0.17 -12.76 -0.17 -12.64 -0.16 -12.52 -0.16 -12.4 -0.16 -12.28 -0.16 -12.16 -0.16 -12.04 -0.15 -11.92 -0.15 -11.81 -0.15 -11.69 -0.14 -11.57 -0.14 -11.45 -0.14 -11.33 -0.14 -11.21 -0.13 -11.09 -0.13 -10.98 -0.13 -10.86 -0.12 -10.74 -0.12 -10.62 -0.12 -10.5 -0.11 -10.38 -0.11 -10.26 -0.1 -10.15 -0.1 -10.03 -0.1 -9.91 -0.09 -9.79 -0.09 -9.67 -0.08 -9.55 -0.08 -9.43 -0.08 -9.31 -0.07 -9.2 -0.07 -9.08 -0.06 -8.96 -0.06 -8.84 -0.06 -8.72 -0.05 -8.6 -0.05 -8.48 -0.04 -8.37 -0.04 -8.25 -0.03 -8.13 -0.03 -8.01 -0.02 -7.89 -0.02 -7.77 -0.01 -7.65 -0.01 -7.53 -0.01 -7.42 -0 -7.3 0 -7.18 0.01 -7.06 0.01 -6.94 0.02 -6.82 0.02 -6.7 0.03 -6.59 0.03 -6.47 0.04 -6.35 0.04 -6.23 0.05 -6.11 0.05 -5.99 0.05 -5.87 0.06 -5.75 0.06 -5.64 0.07 -5.52 0.07 -5.4 0.08 -5.28 0.08 -5.16 0.08 -5.04 0.09 -4.92 0.09 -4.81 0.1 -4.69 0.1 -4.57 0.1 -4.45 0.11 -4.33 0.11 -4.21 0.12 -4.09 0.12 -3.97 0.12 -3.86 0.13 -3.74 0.13 -3.62 0.13 -3.5 0.14 -3.38 0.14 -3.26 0.14 -3.14 0.14 -3.03 0.15 -2.91 0.15 -2.79 0.15 -2.67 0.16 -2.55 0.16 -2.43 0.16 -2.31 0.16 -2.2 0.16 -2.08 0.17 -1.96 0.17 -1.84 0.17 -1.72 0.17 -1.6 0.17 -1.48 0.17 -1.36 0.18 -1.25 0.18 -1.13 0.18 -1.01 0.18 -0.89 0.18 -0.77 0.18 -0.65 0.18 -0.53 0.18 -0.42 0.18 -0.3 0.18 -0.18 0.18 -0.06 0.18 0.06 0.18 0.18 0.18 0.3 0.18 0.42 0.18 0.53 0.18 0.65 0.18 0.77 0.18 0.89 0.18 1.01 0.18 1.13 0.18 1.25 0.18 1.36 0.18 1.48 0.17 1.6 0.17 1.72 0.17 1.84 0.17 1.96 0.17 2.08 0.17 2.2 0.16 2.31 0.16 2.43 0.16 2.55 0.16 2.67 0.16 2.79 0.15 2.91 0.15 3.03 0.15 3.14 0.14 3.26 0.14 3.38 0.14 3.5 0.14 3.62 0.13 3.74 0.13 3.86 0.13 3.97 0.12 4.09 0.12 4.21 0.12 4.33 0.11 4.45 0.11 4.57 0.1 4.69 0.1 4.81 0.1 4.92 0.09 5.04 0.09 5.16 0.08 5.28 0.08 5.4 0.08 5.52 0.07 5.64 0.07 5.75 0.06 5.87 0.06 5.99 0.05 6.11 0.05 6.23 0.05 6.35 0.04 6.47 0.04 6.59 0.03 6.7 0.03 6.82 0.02 6.94 0.02 7.06 0.01 7.18 0.01 7.3 0 7.42 -0 7.53 -0.01 7.65 -0.01 7.77 -0.01 7.89 -0.02 8.01 -0.02 8.13 -0.03 8.25 -0.03 8.37 -0.04 8.48 -0.04 8.6 -0.05 8.72 -0.05 8.84 -0.06 8.96 -0.06 9.08 -0.06 9.2 -0.07 9.31 -0.07 9.43 -0.08 9.55 -0.08 9.67 -0.08 9.79 -0.09 9.91 -0.09 10.03 -0.1 10.15 -0.1 10.26 -0.1 10.38 -0.11 10.5 -0.11 10.62 -0.12 10.74 -0.12 10.86 -0.12 10.98 -0.13 11.09 -0.13 11.21 -0.13 11.33 -0.14 11.45 -0.14 11.57 -0.14 11.69 -0.14 11.81 -0.15 11.92 -0.15 12.04 -0.15 12.16 -0.16 12.28 -0.16 12.4 -0.16 12.52 -0.16 12.64 -0.16 12.76 -0.17 12.87 -0.17 12.99 -0.17 13.11 -0.17 13.23 -0.17 13.35 -0.17 13.47 -0.18 13.59 -0.18 13.7 -0.18 13.82 -0.18 13.94 -0.18 14.06 -0.18 14.18 -0.18 14.3 -0.18 14.42 -0.18 14.54 -0.18 14.65 -0.18 14.77 -0.18" class="primitive"/>
          </g>
          <g transform="translate(37.52,43.66)" id="img-937bc5e6-87" stroke="#3F9778" class="color_f3" stroke-dasharray="none">
            <path fill="none" d="M-14.77,-0 L -14.65 -0 -14.54 -0.01 -14.42 -0.01 -14.3 -0.02 -14.18 -0.02 -14.06 -0.03 -13.94 -0.03 -13.82 -0.04 -13.7 -0.04 -13.59 -0.05 -13.47 -0.05 -13.35 -0.06 -13.23 -0.06 -13.11 -0.07 -12.99 -0.07 -12.87 -0.08 -12.76 -0.08 -12.64 -0.09 -12.52 -0.1 -12.4 -0.1 -12.28 -0.11 -12.16 -0.11 -12.04 -0.12 -11.92 -0.13 -11.81 -0.13 -11.69 -0.14 -11.57 -0.15 -11.45 -0.16 -11.33 -0.16 -11.21 -0.17 -11.09 -0.18 -10.98 -0.19 -10.86 -0.2 -10.74 -0.21 -10.62 -0.22 -10.5 -0.24 -10.38 -0.25 -10.26 -0.26 -10.15 -0.28 -10.03 -0.29 -9.91 -0.31 -9.79 -0.33 -9.67 -0.35 -9.55 -0.37 -9.43 -0.39 -9.31 -0.42 -9.2 -0.45 -9.08 -0.49 -8.96 -0.53 -8.84 -0.57 -8.72 -0.63 -8.6 -0.69 -8.48 -0.77 -8.37 -0.87 -8.25 -0.99 -8.13 -1.15 -8.01 -1.38 -7.89 -1.7 -7.77 -2.23 -7.65 -3.22 -7.53 -5.81 -7.42 -29.05 -7.3 9.68 -7.18 4.15 -7.06 2.64 -6.94 1.93 -6.82 1.52 -6.7 1.25 -6.59 1.07 -6.47 0.93 -6.35 0.82 -6.23 0.73 -6.11 0.66 -5.99 0.6 -5.87 0.55 -5.75 0.51 -5.64 0.47 -5.52 0.44 -5.4 0.41 -5.28 0.38 -5.16 0.36 -5.04 0.34 -4.92 0.32 -4.81 0.3 -4.69 0.28 -4.57 0.27 -4.45 0.25 -4.33 0.24 -4.21 0.23 -4.09 0.22 -3.97 0.21 -3.86 0.2 -3.74 0.19 -3.62 0.18 -3.5 0.17 -3.38 0.16 -3.26 0.15 -3.14 0.14 -3.03 0.14 -2.91 0.13 -2.79 0.12 -2.67 0.12 -2.55 0.11 -2.43 0.1 -2.31 0.1 -2.2 0.09 -2.08 0.09 -1.96 0.08 -1.84 0.08 -1.72 0.07 -1.6 0.06 -1.48 0.06 -1.36 0.05 -1.25 0.05 -1.13 0.04 -1.01 0.04 -0.89 0.04 -0.77 0.03 -0.65 0.03 -0.53 0.02 -0.42 0.02 -0.3 0.01 -0.18 0.01 -0.06 0 0.06 -0 0.18 -0.01 0.3 -0.01 0.42 -0.02 0.53 -0.02 0.65 -0.03 0.77 -0.03 0.89 -0.04 1.01 -0.04 1.13 -0.04 1.25 -0.05 1.36 -0.05 1.48 -0.06 1.6 -0.06 1.72 -0.07 1.84 -0.08 1.96 -0.08 2.08 -0.09 2.2 -0.09 2.31 -0.1 2.43 -0.1 2.55 -0.11 2.67 -0.12 2.79 -0.12 2.91 -0.13 3.03 -0.14 3.14 -0.14 3.26 -0.15 3.38 -0.16 3.5 -0.17 3.62 -0.18 3.74 -0.19 3.86 -0.2 3.97 -0.21 4.09 -0.22 4.21 -0.23 4.33 -0.24 4.45 -0.25 4.57 -0.27 4.69 -0.28 4.81 -0.3 4.92 -0.32 5.04 -0.34 5.16 -0.36 5.28 -0.38 5.4 -0.41 5.52 -0.44 5.64 -0.47 5.75 -0.51 5.87 -0.55 5.99 -0.6 6.11 -0.66 6.23 -0.73 6.35 -0.82 6.47 -0.93 6.59 -1.07 6.7 -1.25 6.82 -1.52 6.94 -1.93 7.06 -2.64 7.18 -4.15 7.3 -9.68 7.42 29.05 7.53 5.81 7.65 3.22 7.77 2.23 7.89 1.7 8.01 1.38 8.13 1.15 8.25 0.99 8.37 0.87 8.48 0.77 8.6 0.69 8.72 0.63 8.84 0.57 8.96 0.53 9.08 0.49 9.2 0.45 9.31 0.42 9.43 0.39 9.55 0.37 9.67 0.35 9.79 0.33 9.91 0.31 10.03 0.29 10.15 0.28 10.26 0.26 10.38 0.25 10.5 0.24 10.62 0.22 10.74 0.21 10.86 0.2 10.98 0.19 11.09 0.18 11.21 0.17 11.33 0.16 11.45 0.16 11.57 0.15 11.69 0.14 11.81 0.13 11.92 0.13 12.04 0.12 12.16 0.11 12.28 0.11 12.4 0.1 12.52 0.1 12.64 0.09 12.76 0.08 12.87 0.08 12.99 0.07 13.11 0.07 13.23 0.06 13.35 0.06 13.47 0.05 13.59 0.05 13.7 0.04 13.82 0.04 13.94 0.03 14.06 0.03 14.18 0.02 14.3 0.02 14.42 0.01 14.54 0.01 14.65 0 14.77 -0" class="primitive"/>
          </g>
        </g>
      </g>
    </g>
  </g>
  <g class="guide ylabels" font-size="2.82" font-family="'PT Sans Caption','Helvetica Neue','Helvetica',sans-serif" fill="rgba(161,161,161,1)" id="img-937bc5e6-88">
    <g transform="translate(19.74,80.32)" id="img-937bc5e6-89">
      <g class="primitive">
        <text text-anchor="end" dy="0.35em">-200</text>
      </g>
    </g>
    <g transform="translate(19.74,61.99)" id="img-937bc5e6-90">
      <g class="primitive">
        <text text-anchor="end" dy="0.35em">-100</text>
      </g>
    </g>
    <g transform="translate(19.74,43.66)" id="img-937bc5e6-91">
      <g class="primitive">
        <text text-anchor="end" dy="0.35em">0</text>
      </g>
    </g>
    <g transform="translate(19.74,25.33)" id="img-937bc5e6-92">
      <g class="primitive">
        <text text-anchor="end" dy="0.35em">100</text>
      </g>
    </g>
    <g transform="translate(19.74,7)" id="img-937bc5e6-93">
      <g class="primitive">
        <text text-anchor="end" dy="0.35em">200</text>
      </g>
    </g>
  </g>
  <g font-size="3.88" font-family="'PT Sans','Helvetica Neue','Helvetica',sans-serif" fill="rgba(161,161,161,1)" stroke="#000000" stroke-opacity="0.000" id="img-937bc5e6-94">
    <g transform="translate(8.81,41.66)" id="img-937bc5e6-95">
      <g class="primitive">
        <text text-anchor="middle" dy="0.35em" transform="rotate(-90,0, 2)">f(x)</text>
      </g>
    </g>
  </g>
</g>
<defs>
  <clipPath id="img-937bc5e6-16">
    <path d="M96.94,5 L 138.56 5 138.56 82.32 96.94 82.32" />
  </clipPath>
  <clipPath id="img-937bc5e6-67">
    <path d="M20.74,5 L 62.36 5 62.36 82.32 20.74 82.32" />
  </clipPath>
</defs>
</svg>
